<svg class="svg-icon" style="width: 1em;height: 1em;vertical-align: middle;fill: currentColor;overflow: hidden;" viewBox="0 0 1024 1024" version="1.1" xmlns="http://www.w3.org/2000/svg"><path d="M650.89 56.91h-413.6c-57.08 0-103.37 46.29-103.37 103.37v689.26c0 57.08 46.29 103.37 103.37 103.37h551.43c57.08 0 103.37-46.29 103.37-103.37V298.22L650.89 56.91z m172.4 792.74c0 19.07-15.39 34.46-34.46 34.46H237.29c-19.07 0-34.46-15.39-34.46-34.46V160.28c0-19.07 15.39-34.46 34.46-34.46h344.69v137.83c0 57.08 46.29 103.37 103.37 103.37h137.83v482.63h0.11z"  /><path d="M638.25 545.63c0 89.97-72.94 162.91-162.91 162.91S312.43 635.6 312.43 545.63s72.94-162.91 162.91-162.91 162.91 72.94 162.91 162.91z m-162.91-81.45c-44.99 0-81.45 36.47-81.45 81.45 0 44.99 36.47 81.45 81.45 81.45s81.45-36.47 81.45-81.45c0.01-44.98-36.46-81.45-81.45-81.45z"  /><path d="M677.39 750.05l-128.4-100.26c-17.73-13.84-20.88-39.44-7.04-57.17 13.84-17.73 39.44-20.88 57.17-7.04l128.41 100.26c17.73 13.84 20.88 39.44 7.04 57.17-13.85 17.73-39.45 20.88-57.18 7.04z"  /></svg>